<svg width="96" height="32" viewBox="0 0 96 32" fill="none" xmlns="http://www.w3.org/2000/svg">
<g clip-path="url(#clip0_1_743)">
<mask id="mask0_1_743" style="mask-type:luminance" maskUnits="userSpaceOnUse" x="0" y="0" width="96" height="32">
<path d="M95.7313 0H0V32H95.7313V0Z" fill="white"/>
</mask>
<g mask="url(#mask0_1_743)">
<path fill-rule="evenodd" clip-rule="evenodd" d="M7.62774 0.000104H88.1078C88.3953 0.000104 88.6875 1.16415e-10 88.975 0.0016C89.174 0.00287338 89.3771 0.00623094 89.5776 0.00954503C89.6228 0.010291 89.6678 0.0110347 89.7125 0.011752C90.2487 0.0177102 90.7836 0.0649862 91.3125 0.15316C91.8435 0.243497 92.358 0.412558 92.8391 0.65476C93.8013 1.14892 94.5843 1.93226 95.0781 2.8946C95.3195 3.37411 95.4865 3.88753 95.5734 4.41726C95.6626 4.94669 95.7123 5.48204 95.7219 6.01886C95.725 6.26417 95.725 6.51026 95.725 6.75558C95.7313 7.04506 95.7313 7.33533 95.7313 7.62794V7.62901V24.3719V24.373C95.7313 24.668 95.7313 24.9567 95.725 25.247C95.725 25.4954 95.725 25.736 95.7219 25.9845C95.7123 26.5213 95.6626 27.0566 95.5734 27.586C95.4867 28.116 95.3197 28.6297 95.0781 29.1094C94.8327 29.5868 94.5137 30.0226 94.1329 30.4009C93.7548 30.7824 93.318 31.1007 92.8391 31.3438C92.358 31.5867 91.8436 31.7568 91.3125 31.8485C90.7835 31.9359 90.2487 31.9832 89.7125 31.9899C89.4688 31.9954 89.2188 31.9985 88.975 31.9985C88.6875 32.0001 88.3953 32.0001 88.1078 32.0001H7.62774C7.3344 32.0001 7.04454 32.0001 6.75196 31.9985C6.50704 31.9985 6.26407 31.9954 6.0168 31.9899C5.47965 31.9828 4.94378 31.9356 4.41368 31.8485C3.88436 31.7574 3.37173 31.5873 2.89298 31.3438C2.41364 31.1009 1.97644 30.7825 1.59806 30.4009C1.21618 30.0241 0.89786 29.588 0.65548 29.1094C0.412087 28.6301 0.243469 28.1163 0.15548 27.586C0.0664107 27.0567 0.0184807 26.5212 0.01212 25.9845C0.00704794 25.8147 0.00507516 25.6486 0.00308676 25.4812C0.00216473 25.4036 0.00123933 25.3256 0 25.247V6.75558C0.00125402 6.67694 0.00218662 6.59822 0.00311955 6.51948C0.00509694 6.35257 0.00707582 6.18554 0.01212 6.01889C0.0184787 5.48212 0.0664088 4.94665 0.15548 4.41729C0.243712 3.88726 0.41232 3.37379 0.65548 2.89463C0.897971 2.41452 1.21624 1.97661 1.59806 1.59776C1.97788 1.21784 2.4148 0.899682 2.89298 0.654832C3.37174 0.412037 3.88442 0.24293 4.41368 0.153232C4.94369 0.065445 5.47961 0.0181854 6.0168 0.011864C6.06813 0.0110518 6.11928 0.010208 6.1703 0.00936624C6.36504 0.00615347 6.55789 0.00297183 6.75196 0.001704C7.04454 0.000104 7.33438 0.000104 7.62774 0.000104ZM6.03243 31.2916C6.27426 31.2971 6.51212 31.3002 6.75586 31.3002L88.1078 31.3018L88.975 31.3002C89.2133 31.3002 89.4586 31.2971 89.6929 31.2916C90.194 31.2855 90.6938 31.2419 91.1883 31.1612C91.6527 31.0824 92.1025 30.9341 92.5227 30.7213C92.9374 30.5105 93.3154 30.2343 93.6422 29.9033C93.9696 29.5788 94.2438 29.2047 94.4547 28.7948C94.6663 28.3742 94.812 27.9236 94.8867 27.4588C94.9684 26.9685 95.0141 26.4729 95.0234 25.976C95.0265 25.7307 95.0265 25.4924 95.0265 25.2322C95.0329 24.9463 95.0329 24.6627 95.0329 24.372V7.62913C95.0329 7.34124 95.0329 7.05569 95.0265 6.75569C95.0265 6.5135 95.0265 6.27014 95.0242 6.04358C95.0147 5.53761 94.9682 5.03301 94.8852 4.53381C94.8098 4.07503 94.6654 3.63028 94.457 3.21468C94.0308 2.38355 93.3553 1.70661 92.525 1.27873C92.1037 1.06711 91.6532 0.919402 91.1883 0.840454C90.6967 0.759782 90.1997 0.716301 89.7016 0.710382L88.9711 0.700222H6.75626L6.0344 0.70999C5.53169 0.716218 5.03015 0.760091 4.53399 0.841238C4.0738 0.919208 3.62793 1.0659 3.21134 1.27639C2.7969 1.4887 2.41835 1.76472 2.08946 2.09437C1.76021 2.42091 1.48596 2.79858 1.27735 3.21273C1.06555 3.63122 0.918934 4.07962 0.842583 4.54241C0.760529 5.03754 0.71626 5.53821 0.710159 6.04006C0.705479 6.20257 0.698407 6.75569 0.698407 6.75569V25.2361C0.698407 25.2361 0.705047 25.7979 0.710119 25.9666C0.716491 26.4692 0.761019 26.9707 0.843319 27.4666C0.919529 27.9281 1.06603 28.3752 1.27772 28.7924C1.4871 29.2068 1.76288 29.5842 2.09413 29.9096C2.42065 30.2388 2.798 30.5134 3.21173 30.7228C3.62928 30.934 4.07599 31.0817 4.53712 31.1612C5.03165 31.2415 5.53146 31.2851 6.03243 31.2916Z" fill="white"/>
<path d="M19.9974 15.9116C20.0063 15.2172 20.1908 14.5364 20.5335 13.9325C20.8763 13.3285 21.3663 12.8211 21.9578 12.4574C21.582 11.9207 21.0862 11.479 20.5099 11.1674C19.9335 10.8558 19.2924 10.6829 18.6375 10.6624C17.2405 10.5158 15.8862 11.4983 15.1743 11.4983C14.4487 11.4983 13.3526 10.677 12.1723 10.7012C11.4089 10.7259 10.6649 10.9479 10.0128 11.3456C9.36065 11.7433 8.82267 12.3032 8.45125 12.9706C6.84236 15.7562 8.04245 19.8501 9.58365 22.1018C10.3548 23.2044 11.256 24.436 12.4352 24.3923C13.5891 24.3445 14.02 23.6565 15.4129 23.6565C16.7929 23.6565 17.1972 24.3923 18.4003 24.3646C19.6386 24.3445 20.4187 23.2571 21.1627 22.144C21.7168 21.3584 22.1431 20.4901 22.4259 19.5713C21.7066 19.2671 21.0927 18.7578 20.6608 18.107C20.2289 17.4562 19.9982 16.6926 19.9974 15.9116Z" fill="white"/>
<path d="M17.7249 9.18126C18.4 8.3708 18.7326 7.32908 18.6521 6.27734C17.6206 6.38568 16.6679 6.87864 15.9836 7.658C15.6491 8.03874 15.3929 8.48168 15.2296 8.96151C15.0663 9.44133 14.9993 9.94863 15.0322 10.4544C15.5481 10.4597 16.0585 10.3479 16.5249 10.1274C16.9913 9.90683 17.4016 9.58334 17.7249 9.18126Z" fill="white"/>
<path d="M33.8414 21.7121H30.0547L29.1453 24.3973H27.5414L31.1281 14.4629H32.7945L36.3813 24.3973H34.75L33.8414 21.7121ZM30.4469 20.4731H33.4485L31.9688 16.1152H31.9274L30.4469 20.4731Z" fill="white"/>
<path d="M44.1274 20.7762C44.1274 23.027 42.9227 24.4731 41.1047 24.4731C40.6442 24.4971 40.1862 24.3911 39.7831 24.1669C39.3801 23.9428 39.0483 23.6098 38.8258 23.2059H38.7914V26.7934H37.3047V17.1543H38.7437V18.359H38.7711C39.0038 17.957 39.3412 17.6257 39.7473 17.4002C40.1534 17.1747 40.6131 17.0635 41.0773 17.0785C42.9156 17.0785 44.1274 18.5316 44.1274 20.7762ZM42.5992 20.7762C42.5992 19.3098 41.8414 18.3457 40.6852 18.3457C39.5492 18.3457 38.7852 19.3301 38.7852 20.7762C38.7852 22.2356 39.5492 23.2129 40.6852 23.2129C41.8414 23.2129 42.5992 22.2559 42.5992 20.7762Z" fill="white"/>
<path d="M52.0996 20.7762C52.0996 23.027 50.8945 24.4731 49.0766 24.4731C48.616 24.4971 48.158 24.3911 47.755 24.1669C47.352 23.9428 47.0202 23.6098 46.7977 23.2059H46.7633V26.7934H45.2766V17.1543H46.7156V18.359H46.743C46.9757 17.957 47.3131 17.6257 47.7192 17.4002C48.1253 17.1747 48.5849 17.0635 49.0492 17.0785C50.8875 17.0785 52.0996 18.5316 52.0996 20.7762ZM50.5711 20.7762C50.5711 19.3098 49.8133 18.3457 48.657 18.3457C47.5211 18.3457 46.757 19.3301 46.757 20.7762C46.757 22.2356 47.5211 23.2129 48.657 23.2129C49.8133 23.2129 50.5711 22.2559 50.5711 20.7762Z" fill="white"/>
<path d="M57.3676 21.629C57.4777 22.6142 58.4348 23.261 59.7426 23.261C60.9957 23.261 61.8973 22.6141 61.8973 21.7258C61.8973 20.9547 61.3535 20.493 60.066 20.1766L58.7785 19.8665C56.9543 19.4258 56.1074 18.5727 56.1074 17.1883C56.1074 15.4743 57.6012 14.2969 59.7215 14.2969C61.8215 14.2969 63.2606 15.4743 63.309 17.1883H61.8082C61.7184 16.1969 60.8988 15.5985 59.7012 15.5985C58.5035 15.5985 57.684 16.204 57.684 17.0852C57.684 17.7876 58.2074 18.2008 59.4879 18.5172L60.5824 18.786C62.6207 19.268 63.4668 20.0868 63.4668 21.5399C63.4668 23.3985 61.9871 24.5625 59.6324 24.5625C57.4293 24.5625 55.9418 23.4258 55.8457 21.6289L57.3676 21.629Z" fill="white"/>
<path d="M66.677 15.4395V17.1536H68.0543V18.3309H66.677V22.3239C66.677 22.9442 66.9527 23.2333 67.5582 23.2333C67.7217 23.2304 67.885 23.219 68.0473 23.1989V24.3692C67.7751 24.4201 67.4984 24.4431 67.2215 24.438C65.7551 24.438 65.1832 23.8872 65.1832 22.4825V18.3309H64.1301V17.1536H65.1832V15.4395H66.677Z" fill="white"/>
<path d="M68.8512 20.7755C68.8512 18.4966 70.1934 17.0645 72.2864 17.0645C74.3864 17.0645 75.7223 18.4965 75.7223 20.7755C75.7223 23.0606 74.3934 24.4864 72.2864 24.4864C70.1801 24.4864 68.8512 23.0606 68.8512 20.7755ZM74.2074 20.7755C74.2074 19.2122 73.491 18.2895 72.2863 18.2895C71.0817 18.2895 70.3653 19.2192 70.3653 20.7755C70.3653 22.345 71.0817 23.2606 72.2863 23.2606C73.491 23.2606 74.2074 22.345 74.2074 20.7755Z" fill="white"/>
<path d="M76.9481 17.1542H78.366V18.387H78.4004C78.4964 18.002 78.7219 17.6617 79.0392 17.4234C79.3565 17.1851 79.7461 17.0633 80.1426 17.0784C80.3139 17.0778 80.4848 17.0964 80.652 17.1339V18.5245C80.4357 18.4584 80.2101 18.4281 79.984 18.4347C79.768 18.4259 79.5527 18.464 79.3528 18.5463C79.1529 18.6286 78.9732 18.7532 78.8261 18.9115C78.6789 19.0698 78.5677 19.2581 78.5002 19.4634C78.4326 19.6688 78.4103 19.8863 78.4348 20.1011V24.3972H76.948L76.9481 17.1542Z" fill="white"/>
<path d="M87.5067 22.2692C87.3067 23.5841 86.0262 24.4864 84.3879 24.4864C82.2809 24.4864 80.9731 23.0747 80.9731 20.8098C80.9731 18.538 82.2879 17.0645 84.3254 17.0645C86.3293 17.0645 87.5895 18.4411 87.5895 20.6372V21.1466H82.4738V21.2364C82.4502 21.503 82.4836 21.7715 82.5717 22.0242C82.6599 22.2768 82.8008 22.5079 82.9851 22.7019C83.1694 22.896 83.3928 23.0486 83.6406 23.1496C83.8884 23.2506 84.1549 23.2978 84.4223 23.288C84.7736 23.3209 85.1262 23.2395 85.4275 23.056C85.7289 22.8724 85.963 22.5965 86.0949 22.2692H87.5067ZM82.4809 20.1075H86.102C86.1153 19.8678 86.079 19.628 85.9952 19.403C85.9115 19.178 85.7822 18.9728 85.6153 18.8002C85.4485 18.6276 85.2478 18.4913 85.0258 18.3999C84.8039 18.3086 84.5654 18.2641 84.3254 18.2692C84.0833 18.2678 83.8433 18.3143 83.6193 18.4061C83.3952 18.4979 83.1916 18.6331 83.0201 18.804C82.8486 18.975 82.7127 19.1781 82.6201 19.4018C82.5276 19.6256 82.4802 19.8654 82.4809 20.1075Z" fill="white"/>
<path d="M30.261 6.98491C30.5726 6.96254 30.8854 7.00963 31.1767 7.12278C31.468 7.23592 31.7305 7.41231 31.9454 7.63921C32.1603 7.86611 32.3221 8.13786 32.4192 8.43488C32.5164 8.7319 32.5463 9.04677 32.507 9.35678C32.507 10.8818 31.6828 11.7584 30.261 11.7584H28.5367V6.98491H30.261ZM29.2781 11.0833H30.1781C30.4009 11.0966 30.6237 11.0601 30.8306 10.9764C31.0374 10.8927 31.223 10.764 31.3738 10.5995C31.5246 10.435 31.6368 10.239 31.7023 10.0257C31.7678 9.81246 31.7849 9.58725 31.7524 9.36651C31.7825 9.14664 31.7637 8.92282 31.6972 8.71109C31.6307 8.49936 31.5182 8.30496 31.3677 8.14182C31.2173 7.97867 31.0326 7.85082 30.8269 7.76744C30.6213 7.68405 30.3997 7.64718 30.1781 7.65948H29.2781V11.0833Z" fill="white"/>
<path d="M33.3445 9.95504C33.3219 9.71831 33.349 9.47945 33.424 9.2538C33.4991 9.02814 33.6205 8.82067 33.7805 8.64468C33.9404 8.4687 34.1354 8.32808 34.3529 8.23186C34.5704 8.13564 34.8056 8.08594 35.0434 8.08594C35.2812 8.08594 35.5164 8.13564 35.7339 8.23186C35.9513 8.32808 36.1463 8.4687 36.3063 8.64468C36.4662 8.82067 36.5876 9.02814 36.6627 9.2538C36.7378 9.47945 36.7648 9.71831 36.7422 9.95504C36.7653 10.192 36.7385 10.4312 36.6636 10.6573C36.5888 10.8833 36.4674 11.0911 36.3074 11.2675C36.1474 11.4438 35.9523 11.5847 35.7346 11.6811C35.5169 11.7776 35.2815 11.8274 35.0434 11.8274C34.8053 11.8274 34.5698 11.7776 34.3521 11.6811C34.1344 11.5847 33.9393 11.4438 33.7793 11.2675C33.6193 11.0911 33.498 10.8833 33.4231 10.6573C33.3482 10.4312 33.3215 10.192 33.3445 9.95504ZM36.0109 9.95504C36.0109 9.17419 35.6602 8.71755 35.0445 8.71755C34.4266 8.71755 34.0789 9.17419 34.0789 9.95505C34.0789 10.7422 34.4266 11.1953 35.0445 11.1953C35.6602 11.1953 36.0109 10.7391 36.0109 9.95504Z" fill="white"/>
<path d="M41.2586 11.7586H40.5211L39.7766 9.10546H39.7203L38.9789 11.7586H38.2485L37.2555 8.15625H37.9766L38.6219 10.9051H38.675L39.4156 8.15625H40.0977L40.8383 10.9051H40.8946L41.5367 8.15625H42.2477L41.2586 11.7586Z" fill="white"/>
<path d="M43.0828 8.15609H43.7672V8.72836H43.8203C43.9105 8.52282 44.0625 8.35052 44.2552 8.23548C44.4478 8.12043 44.6716 8.06837 44.8953 8.08656C45.0706 8.07338 45.2466 8.09981 45.4103 8.16388C45.574 8.22796 45.7211 8.32804 45.8409 8.45672C45.9606 8.58539 46.0499 8.73936 46.102 8.90722C46.1542 9.07508 46.1679 9.25252 46.1422 9.4264V11.7584H45.4313V9.60493C45.4313 9.02602 45.1797 8.73813 44.6539 8.73813C44.5349 8.73258 44.4161 8.75284 44.3057 8.7975C44.1952 8.84217 44.0957 8.91018 44.014 8.99689C43.9323 9.0836 43.8704 9.18695 43.8323 9.29985C43.7943 9.41276 43.7812 9.53255 43.7938 9.65101V11.7584H43.0828V8.15609Z" fill="white"/>
<path d="M47.275 6.75H47.986V11.7586H47.275V6.75Z" fill="white"/>
<path d="M48.9742 9.95511C48.9516 9.71836 48.9787 9.47949 49.0538 9.25383C49.1289 9.02816 49.2503 8.82068 49.4103 8.64469C49.5702 8.4687 49.7652 8.32809 49.9827 8.23187C50.2002 8.13564 50.4354 8.08594 50.6733 8.08594C50.9111 8.08594 51.1463 8.13564 51.3638 8.23187C51.5813 8.32809 51.7763 8.4687 51.9362 8.64469C52.0962 8.82068 52.2176 9.02816 52.2927 9.25383C52.3678 9.47949 52.3949 9.71836 52.3723 9.95511C52.3953 10.1921 52.3685 10.4312 52.2936 10.6573C52.2187 10.8833 52.0974 11.0911 51.9374 11.2675C51.7774 11.4438 51.5822 11.5847 51.3645 11.6811C51.1468 11.7775 50.9114 11.8273 50.6733 11.8273C50.4351 11.8273 50.1997 11.7775 49.982 11.6811C49.7643 11.5847 49.5691 11.4438 49.4091 11.2675C49.2491 11.0911 49.1278 10.8833 49.0529 10.6573C48.978 10.4312 48.9512 10.1921 48.9742 9.95511ZM51.6406 9.95511C51.6406 9.17425 51.2898 8.71761 50.6742 8.71761C50.0563 8.71761 49.7086 9.17425 49.7086 9.95512C49.7086 10.7422 50.0563 11.1953 50.6742 11.1953C51.2898 11.1953 51.6406 10.7391 51.6406 9.95511Z" fill="white"/>
<path d="M53.1207 10.7391C53.1207 10.0906 53.6035 9.7168 54.4606 9.66367L55.4363 9.60742V9.29649C55.4363 8.91602 55.1848 8.70118 54.6988 8.70118C54.302 8.70118 54.027 8.84688 53.9481 9.10157H53.2598C53.3324 8.48282 53.9145 8.08594 54.7317 8.08594C55.6348 8.08594 56.1442 8.53554 56.1442 9.29649V11.7578H55.4598V11.2516H55.4035C55.2894 11.4332 55.129 11.5812 54.9389 11.6806C54.7488 11.7799 54.5358 11.8271 54.3215 11.8172C54.1703 11.8329 54.0174 11.8168 53.8728 11.7698C53.7282 11.7228 53.595 11.6461 53.4819 11.5445C53.3688 11.4429 53.2782 11.3188 53.216 11.1801C53.1538 11.0413 53.1213 10.8911 53.1207 10.7391ZM55.4363 10.4312V10.1301L54.5567 10.1863C54.0606 10.2195 53.8356 10.3883 53.8356 10.7058C53.8356 11.0301 54.1168 11.2187 54.5036 11.2187C54.6169 11.2302 54.7313 11.2188 54.8401 11.1851C54.9489 11.1514 55.0499 11.0962 55.1369 11.0227C55.2239 10.9493 55.2953 10.859 55.3467 10.7574C55.3982 10.6558 55.4286 10.5449 55.4363 10.4312Z" fill="white"/>
<path d="M57.0785 9.95587C57.0785 8.81759 57.6637 8.0965 58.5738 8.0965C58.799 8.08612 59.0224 8.14004 59.218 8.25196C59.4136 8.36388 59.5734 8.52916 59.6785 8.7285H59.7317V6.75H60.4426V11.7586H59.7613V11.1894H59.7051C59.5918 11.3874 59.4265 11.5507 59.2271 11.6615C59.0277 11.7722 58.8018 11.8264 58.5738 11.818C57.6574 11.818 57.0785 11.0969 57.0785 9.95587ZM57.8129 9.95587C57.8129 10.7199 58.1731 11.1797 58.7754 11.1797C59.3746 11.1797 59.745 10.7133 59.745 9.959C59.745 9.20822 59.3707 8.73517 58.7754 8.73517C58.177 8.73517 57.8129 9.19806 57.8129 9.95587Z" fill="white"/>
<path d="M63.384 9.95504C63.3614 9.71831 63.3884 9.47945 63.4635 9.2538C63.5386 9.02814 63.66 8.82067 63.8199 8.64468C63.9799 8.4687 64.1749 8.32808 64.3923 8.23186C64.6098 8.13564 64.845 8.08594 65.0828 8.08594C65.3206 8.08594 65.5558 8.13564 65.7733 8.23186C65.9908 8.32808 66.1858 8.4687 66.3457 8.64468C66.5057 8.82067 66.6271 9.02814 66.7021 9.2538C66.7772 9.47945 66.8043 9.71831 66.7817 9.95504C66.8047 10.192 66.778 10.4312 66.7031 10.6573C66.6282 10.8833 66.5069 11.0911 66.3469 11.2675C66.1869 11.4438 65.9918 11.5847 65.7741 11.6811C65.5564 11.7776 65.3209 11.8274 65.0828 11.8274C64.8447 11.8274 64.6093 11.7776 64.3916 11.6811C64.1739 11.5847 63.9787 11.4438 63.8188 11.2675C63.6588 11.0911 63.5374 10.8833 63.4626 10.6573C63.3877 10.4312 63.3609 10.192 63.384 9.95504ZM66.0504 9.95504C66.0504 9.17419 65.6996 8.71755 65.084 8.71755C64.466 8.71755 64.1184 9.17419 64.1184 9.95505C64.1184 10.7422 64.4661 11.1953 65.084 11.1953C65.6996 11.1953 66.0504 10.7391 66.0504 9.95504Z" fill="white"/>
<path d="M67.7356 8.15609H68.4199V8.72836H68.4731C68.5632 8.52282 68.7152 8.35052 68.9079 8.23548C69.1006 8.12043 69.3244 8.06837 69.5481 8.08656C69.7233 8.07338 69.8993 8.09981 70.063 8.16388C70.2267 8.22796 70.3739 8.32804 70.4936 8.45672C70.6134 8.58539 70.7026 8.73936 70.7548 8.90722C70.8069 9.07508 70.8207 9.25252 70.7949 9.4264V11.7584H70.084V9.60493C70.084 9.02602 69.8324 8.73813 69.3067 8.73813C69.1877 8.73258 69.0688 8.75284 68.9584 8.7975C68.848 8.84217 68.7485 8.91018 68.6668 8.99689C68.5851 9.0836 68.5231 9.18695 68.4851 9.29985C68.447 9.41276 68.4339 9.53255 68.4465 9.65101V11.7584H67.7356V8.15609Z" fill="white"/>
<path d="M74.8121 7.25879V8.17207H75.5926V8.77091H74.8121V10.6232C74.8121 11.0006 74.9676 11.1658 75.3215 11.1658C75.4121 11.1655 75.5026 11.16 75.5926 11.1494V11.7416C75.4649 11.7644 75.3356 11.7766 75.2059 11.7779C74.4152 11.7779 74.1004 11.4998 74.1004 10.8053V8.77087H73.5285V8.17204H74.1004V7.25879H74.8121Z" fill="white"/>
<path d="M76.5637 6.75H77.2684V8.73516H77.3246C77.4191 8.5277 77.5753 8.35443 77.7719 8.23895C77.9684 8.12347 78.1958 8.07141 78.423 8.08985C78.5974 8.08036 78.7717 8.10947 78.9335 8.1751C79.0953 8.24074 79.2407 8.34128 79.3592 8.46955C79.4777 8.59782 79.5664 8.75066 79.619 8.91717C79.6717 9.08367 79.6869 9.25974 79.6636 9.43282V11.7586H78.952V9.6082C78.952 9.03281 78.684 8.7414 78.1817 8.7414C78.0595 8.73138 77.9366 8.74818 77.8216 8.79062C77.7065 8.83306 77.6022 8.90012 77.5158 8.98711C77.4294 9.0741 77.3631 9.17892 77.3214 9.29423C77.2797 9.40954 77.2638 9.53256 77.2747 9.65468V11.7586H76.5637V6.75Z" fill="white"/>
<path d="M83.809 10.7852C83.7124 11.1145 83.5031 11.3993 83.2178 11.5898C82.9324 11.7803 82.5892 11.8644 82.2481 11.8274C82.0107 11.8337 81.7749 11.7882 81.5569 11.6942C81.3389 11.6002 81.1439 11.4599 80.9856 11.2829C80.8273 11.106 80.7094 10.8968 80.64 10.6697C80.5707 10.4427 80.5515 10.2032 80.584 9.96803C80.5524 9.73212 80.5718 9.49217 80.641 9.26444C80.7102 9.0367 80.8275 8.82648 80.985 8.64803C81.1425 8.46957 81.3365 8.32703 81.5539 8.23006C81.7713 8.1331 82.0069 8.08397 82.2449 8.086C83.2473 8.086 83.852 8.7708 83.852 9.902V10.1501H81.3082V10.1899C81.2971 10.3221 81.3137 10.4552 81.357 10.5806C81.4003 10.706 81.4693 10.821 81.5596 10.9181C81.65 11.0153 81.7596 11.0925 81.8815 11.1448C82.0034 11.1971 82.1349 11.2234 82.2676 11.2219C82.4376 11.2424 82.6099 11.2117 82.7625 11.134C82.9152 11.0562 83.0412 10.9348 83.1246 10.7852H83.809ZM81.3082 9.62428H83.1277C83.1367 9.50337 83.1203 9.38193 83.0795 9.26776C83.0387 9.15358 82.9745 9.0492 82.891 8.96131C82.8075 8.87343 82.7065 8.80398 82.5946 8.75744C82.4827 8.7109 82.3622 8.6883 82.241 8.69108C82.118 8.68953 81.996 8.71262 81.8821 8.75897C81.7682 8.80533 81.6648 8.87402 81.5778 8.96099C81.4909 9.04796 81.4223 9.15145 81.376 9.26537C81.3297 9.37928 81.3066 9.50132 81.3082 9.62428Z" fill="white"/>
</g>
</g>
<defs>
<clipPath id="clip0_1_743">
<rect width="96" height="32" fill="white"/>
</clipPath>
</defs>
</svg>
