<svg width="109" height="32" viewBox="0 0 109 32" fill="none" xmlns="http://www.w3.org/2000/svg">
<g clip-path="url(#clip0_1_772)">
<mask id="mask0_1_772" style="mask-type:luminance" maskUnits="userSpaceOnUse" x="0" y="0" width="109" height="32">
<path d="M108.731 0H0.731262V32H108.731V0Z" fill="white"/>
</mask>
<g mask="url(#mask0_1_772)">
<path d="M104.731 0.64C106.587 0.64 108.091 2.144 108.091 4V28C108.091 29.856 106.587 31.36 104.731 31.36H4.73126C2.87526 31.36 1.37126 29.856 1.37126 28V4C1.37126 2.144 2.87526 0.64 4.73126 0.64H104.731ZM104.731 0H4.73126C2.53126 0 0.731262 1.8 0.731262 4V28C0.731262 30.2 2.53126 32 4.73126 32H104.731C106.931 32 108.731 30.2 108.731 28V4C108.731 1.8 106.931 0 104.731 0Z" fill="white"/>
<path d="M38.6673 8.19209C38.6673 8.86409 38.4673 9.40009 38.0673 9.79209C37.6193 10.2641 37.0273 10.5041 36.3073 10.5041C35.5873 10.5041 35.0273 10.2641 34.5393 9.78409C34.0513 9.30409 33.8113 8.70409 33.8113 8.00009C33.8113 7.29609 34.0513 6.69609 34.5393 6.21609C35.0273 5.73609 35.6113 5.49609 36.3073 5.49609C36.6513 5.49609 36.9793 5.56009 37.2913 5.69609C37.6033 5.83209 37.8513 6.00809 38.0433 6.23209L37.6193 6.65609C37.2993 6.28009 36.8673 6.08809 36.3073 6.08809C35.8033 6.08809 35.3633 6.26409 34.9953 6.62409C34.6273 6.97609 34.4433 7.44009 34.4433 8.00809C34.4433 8.57609 34.6273 9.04009 34.9953 9.39209C35.3633 9.74409 35.8033 9.92809 36.3073 9.92809C36.8433 9.92809 37.2913 9.75209 37.6513 9.39209C37.8833 9.16009 38.0193 8.83209 38.0513 8.41609H36.3073V7.84009H38.6353C38.6593 7.96809 38.6673 8.08809 38.6673 8.20009V8.19209Z" fill="white" stroke="white" stroke-width="0.2" stroke-miterlimit="10"/>
<path d="M42.3553 6.19161H40.1713V7.71161H42.1393V8.28761H40.1713V9.80761H42.3553V10.3996H39.5553V5.59961H42.3553V6.19161Z" fill="white" stroke="white" stroke-width="0.2" stroke-miterlimit="10"/>
<path d="M44.9553 10.3996H44.3393V6.19161H42.9953V5.59961H46.2913V6.19161H44.9473V10.3996H44.9553Z" fill="white" stroke="white" stroke-width="0.2" stroke-miterlimit="10"/>
<path d="M48.6833 10.3996V5.59961H49.2993V10.3996H48.6833Z" fill="white" stroke="white" stroke-width="0.2" stroke-miterlimit="10"/>
<path d="M52.0353 10.3996H51.4193V6.19161H50.0753V5.59961H53.3713V6.19161H52.0273V10.3996H52.0353Z" fill="white" stroke="white" stroke-width="0.2" stroke-miterlimit="10"/>
<path d="M59.6193 9.77609C59.1473 10.2641 58.5633 10.5041 57.8593 10.5041C57.1553 10.5041 56.5713 10.2641 56.0993 9.77609C55.6273 9.28809 55.3953 8.69609 55.3953 8.00009C55.3953 7.30409 55.6273 6.70409 56.0993 6.22409C56.5713 5.73609 57.1553 5.49609 57.8593 5.49609C58.5633 5.49609 59.1393 5.73609 59.6193 6.22409C60.0913 6.71209 60.3313 7.30409 60.3313 8.00009C60.3313 8.69609 60.0993 9.29609 59.6273 9.77609H59.6193ZM56.5553 9.37609C56.9073 9.73609 57.3473 9.91209 57.8593 9.91209C58.3713 9.91209 58.8113 9.73609 59.1633 9.37609C59.5153 9.01609 59.6993 8.56009 59.6993 8.00009C59.6993 7.44009 59.5233 6.98409 59.1633 6.62409C58.8113 6.26409 58.3713 6.08809 57.8593 6.08809C57.3473 6.08809 56.9073 6.26409 56.5553 6.62409C56.2033 6.98409 56.0193 7.44009 56.0193 8.00009C56.0193 8.56009 56.1953 9.01609 56.5553 9.37609Z" fill="white" stroke="white" stroke-width="0.2" stroke-miterlimit="10"/>
<path d="M61.1953 10.3996V5.59961H61.9473L64.2833 9.33561H64.3073L64.2833 8.40761V5.59961H64.8993V10.3996H64.2593L61.8193 6.48761H61.7953L61.8193 7.41561V10.4076H61.2033L61.1953 10.3996Z" fill="white" stroke="white" stroke-width="0.2" stroke-miterlimit="10"/>
<path d="M55.2433 17.3998C53.3633 17.3998 51.8273 18.8318 51.8273 20.7998C51.8273 22.7678 53.3633 24.1998 55.2433 24.1998C57.1233 24.1998 58.6593 22.7598 58.6593 20.7998C58.6593 18.8398 57.1233 17.3998 55.2433 17.3998ZM55.2433 22.8638C54.2113 22.8638 53.3233 22.0158 53.3233 20.7998C53.3233 19.5838 54.2113 18.7358 55.2433 18.7358C56.2753 18.7358 57.1633 19.5758 57.1633 20.7998C57.1633 22.0238 56.2753 22.8638 55.2433 22.8638ZM47.7953 17.3998C45.9153 17.3998 44.3793 18.8318 44.3793 20.7998C44.3793 22.7678 45.9153 24.1998 47.7953 24.1998C49.6753 24.1998 51.2113 22.7598 51.2113 20.7998C51.2113 18.8398 49.6753 17.3998 47.7953 17.3998ZM47.7953 22.8638C46.7633 22.8638 45.8753 22.0158 45.8753 20.7998C45.8753 19.5838 46.7633 18.7358 47.7953 18.7358C48.8273 18.7358 49.7153 19.5758 49.7153 20.7998C49.7153 22.0238 48.8273 22.8638 47.7953 22.8638ZM38.9313 18.4398V19.8798H42.3873C42.2833 20.6878 42.0113 21.2878 41.6033 21.6958C41.0993 22.1998 40.3153 22.7518 38.9393 22.7518C36.8113 22.7518 35.1473 21.0398 35.1473 18.9118C35.1473 16.7838 36.8113 15.0718 38.9393 15.0718C40.0833 15.0718 40.9233 15.5198 41.5393 16.1038L42.5553 15.0878C41.6913 14.2638 40.5473 13.6318 38.9313 13.6318C36.0193 13.6318 33.5713 15.9998 33.5713 18.9198C33.5713 21.8398 36.0193 24.2078 38.9313 24.2078C40.5073 24.2078 41.6913 23.6958 42.6193 22.7278C43.5713 21.7758 43.8673 20.4318 43.8673 19.3518C43.8673 19.0158 43.8433 18.7038 43.7873 18.4478H38.9313V18.4398ZM75.1793 19.5598C74.8993 18.7998 74.0353 17.3918 72.2673 17.3918C70.4993 17.3918 69.0593 18.7678 69.0593 20.7918C69.0593 22.6958 70.4993 24.1918 72.4353 24.1918C73.9953 24.1918 74.8993 23.2398 75.2673 22.6878L74.1073 21.9118C73.7233 22.4798 73.1953 22.8558 72.4353 22.8558C71.6753 22.8558 71.1313 22.5118 70.7873 21.8238L75.3393 19.9438L75.1873 19.5598H75.1793ZM70.5393 20.6958C70.4993 19.3838 71.5553 18.7118 72.3153 18.7118C72.9073 18.7118 73.4113 19.0078 73.5793 19.4318L70.5393 20.6958ZM66.8433 23.9918H68.3393V13.9918H66.8433V23.9918ZM64.3953 18.1518H64.3473C64.0113 17.7518 63.3713 17.3918 62.5553 17.3918C60.8513 17.3918 59.2913 18.8878 59.2913 20.8078C59.2913 22.7278 60.8513 24.1998 62.5553 24.1998C63.3713 24.1998 64.0113 23.8398 64.3473 23.4238H64.3953V23.9118C64.3953 25.2158 63.6993 25.9118 62.5793 25.9118C61.6673 25.9118 61.0993 25.2558 60.8673 24.7038L59.5633 25.2478C59.9393 26.1518 60.9313 27.2558 62.5793 27.2558C64.3313 27.2558 65.8113 26.2238 65.8113 23.7118V17.5998H64.3953V18.1518ZM62.6833 22.8558C61.6513 22.8558 60.7873 21.9918 60.7873 20.8078C60.7873 19.6238 61.6513 18.7358 62.6833 18.7358C63.7153 18.7358 64.4993 19.6158 64.4993 20.8078C64.4993 21.9998 63.6993 22.8558 62.6833 22.8558ZM82.1873 13.9918H78.6113V23.9918H80.1073V20.1998H82.1953C83.8513 20.1998 85.4753 18.9998 85.4753 17.0958C85.4753 15.1918 83.8513 13.9918 82.1953 13.9918H82.1873ZM82.2273 18.8158H80.1073V15.3838H82.2273C83.3473 15.3838 83.9793 16.3118 83.9793 17.0958C83.9793 17.8798 83.3473 18.8078 82.2273 18.8078V18.8158ZM91.4513 17.3758C90.3713 17.3758 89.2513 17.8558 88.7873 18.9038L90.1153 19.4558C90.3953 18.9038 90.9233 18.7198 91.4753 18.7198C92.2433 18.7198 93.0352 19.1838 93.0432 20.0078V20.1118C92.7712 19.9598 92.1953 19.7278 91.4833 19.7278C90.0513 19.7278 88.6032 20.5118 88.6032 21.9758C88.6032 23.3118 89.7713 24.1758 91.0833 24.1758C92.0833 24.1758 92.6433 23.7278 92.9873 23.1998H93.0353V23.9758H94.4753V20.1438C94.4753 18.3678 93.1473 17.3758 91.4353 17.3758H91.4513ZM91.2672 22.8558C90.7792 22.8558 90.0993 22.6078 90.0993 22.0078C90.0993 21.2398 90.9473 20.9438 91.6833 20.9438C92.3393 20.9438 92.6512 21.0878 93.0432 21.2798C92.9312 22.2078 92.1312 22.8638 91.2672 22.8638V22.8558ZM99.7312 17.5918L98.0192 21.9278H97.9713L96.1953 17.5918H94.5873L97.2513 23.6558L95.7312 27.0238H97.2912L101.395 17.5918H99.7393H99.7312ZM86.2833 23.9918H87.7792V13.9918H86.2833V23.9918Z" fill="white"/>
<path d="M9.07526 6.03959C8.84326 6.28759 8.70726 6.66359 8.70726 7.15959V24.8396C8.70726 25.3356 8.84326 25.7196 9.07526 25.9596L9.13126 26.0156L19.0353 16.1116V15.8796L9.13926 5.97559L9.08326 6.03159L9.07526 6.03959Z" fill="#5BC9F4"/>
<path d="M22.3393 19.4162L19.0353 16.1122V15.8802L22.3393 12.5762L22.4113 12.6162L26.3233 14.8402C27.4433 15.4722 27.4433 16.5122 26.3233 17.1522L22.4113 19.3762L22.3393 19.4162Z" fill="url(#paint0_linear_1_772)"/>
<path d="M22.4193 19.376L19.0433 16L9.08325 25.96C9.45125 26.352 10.0593 26.4 10.7473 26.008L22.4273 19.376" fill="url(#paint1_linear_1_772)"/>
<path d="M22.4193 12.6238L10.7393 5.9918C10.0513 5.5998 9.44326 5.6478 9.07526 6.0398L19.0353 15.9998L22.4113 12.6238H22.4193Z" fill="url(#paint2_linear_1_772)"/>
</g>
</g>
<defs>
<linearGradient id="paint0_linear_1_772" x1="25.6033" y1="16.0002" x2="6.25926" y2="16.0002" gradientUnits="userSpaceOnUse">
<stop stop-color="#FEE000"/>
<stop offset="0.42" stop-color="#FBBC0E"/>
<stop offset="0.78" stop-color="#F9A318"/>
<stop offset="1" stop-color="#F99B1C"/>
</linearGradient>
<linearGradient id="paint1_linear_1_772" x1="20.5793" y1="17.832" x2="2.38726" y2="36.024" gradientUnits="userSpaceOnUse">
<stop stop-color="#EF4547"/>
<stop offset="1" stop-color="#C6186D"/>
</linearGradient>
<linearGradient id="paint2_linear_1_772" x1="2.30726" y1="-4.1042" x2="17.1633" y2="10.7438" gradientUnits="userSpaceOnUse">
<stop stop-color="#279E6F"/>
<stop offset="0.04" stop-color="#2B9F6E"/>
<stop offset="0.46" stop-color="#52B16B"/>
<stop offset="0.8" stop-color="#6BBC69"/>
<stop offset="1" stop-color="#74C169"/>
</linearGradient>
<clipPath id="clip0_1_772">
<rect width="109" height="32" fill="white"/>
</clipPath>
</defs>
</svg>
